<svg width="22" height="22" viewBox="0 0 22 22" fill="none" xmlns="http://www.w3.org/2000/svg">
<path d="M11.4125 16.8781L16.1375 19.8781C16.7469 20.2625 17.4969 19.6906 17.3187 18.9875L15.95 13.6063C15.913 13.4571 15.9189 13.3005 15.967 13.1545C16.0151 13.0086 16.1034 12.8792 16.2219 12.7812L20.4594 9.24688C21.0125 8.7875 20.7312 7.85938 20.0094 7.8125L14.4781 7.45625C14.3272 7.44747 14.1821 7.39492 14.0606 7.30501C13.939 7.21511 13.8463 7.09174 13.7937 6.95L11.7312 1.75625C11.6767 1.60616 11.5772 1.4765 11.4464 1.38488C11.3156 1.29326 11.1597 1.24412 11 1.24412C10.8403 1.24412 10.6844 1.29326 10.5536 1.38488C10.4228 1.4765 10.3233 1.60616 10.2687 1.75625L8.20625 6.95C8.15368 7.09174 8.06096 7.21511 7.93943 7.30501C7.81789 7.39492 7.67279 7.44747 7.52187 7.45625L1.99062 7.8125C1.26875 7.85938 0.987496 8.7875 1.54062 9.24688L5.77812 12.7812C5.89656 12.8792 5.98492 13.0086 6.03302 13.1545C6.08112 13.3005 6.08701 13.4571 6.05 13.6063L4.78437 18.5938C4.56875 19.4375 5.46875 20.1219 6.19062 19.6625L10.5875 16.8781C10.7108 16.7997 10.8539 16.7581 11 16.7581C11.1461 16.7581 11.2892 16.7997 11.4125 16.8781V16.8781Z" stroke="#9A9A9A" stroke-width="2" stroke-linecap="round" stroke-linejoin="round"/>
</svg>
